# xmcd CD database file
#
# Track frame offsets:
#	150
#	18487
#	41475
#
# Disc length: 794 seconds
#
# Revision: 3
# Processed by: cddbd v1.4PL0 Copyright (c) Steve Scherf et al.
# Submitted via: CDex 1.40Beta9
#
DISCID=1b031803
DTITLE=Kaori Kawamura - Fun House
DYEAR=1995
DGENRE=Vocal
TTITLE0=DREAMER DREAMER
TTITLE1=CRY BABY CRY
TTITLE2=DREAMER DREAMER(Instrumental Version)
EXTD=YEAR: 1995 ID3G: 28
EXTT0=
EXTT1=
EXTT2=
PLAYORDER=
